<svg xmlns="http://www.w3.org/2000/svg" viewBox="0 0 974.37 1059.43"><defs><style>.cls-1{fill:#fdfffc;}</style></defs><g id="Capa_2" data-name="Capa 2"><g id="Capa_1-2" data-name="Capa 1"><path class="cls-1" d="M909.74,400.47h-42.6a12.62,12.62,0,0,1-12.63-12.63V349.78C854.51,156.6,697.91,0,504.74,0H472C278.84,0,122.24,156.6,122.24,349.78v38.06a12.62,12.62,0,0,1-12.62,12.63h-45A64.62,64.62,0,0,0,0,465.09V1008a51.42,51.42,0,0,0,51.42,51.43H922.94A51.42,51.42,0,0,0,974.37,1008V465.09A64.63,64.63,0,0,0,909.74,400.47ZM562.89,790.3l51,88.38a12.71,12.71,0,0,1-11,19.06H371.45a12.71,12.71,0,0,1-11-19.06l51-88.38a12.48,12.48,0,0,0-2.85-16.1,128.84,128.84,0,0,1,82.23-231C559.45,545.15,616,603.39,616.1,672a128.62,128.62,0,0,1-50.35,102.2A12.47,12.47,0,0,0,562.89,790.3Zm194-402.46a12.62,12.62,0,0,1-12.63,12.63H232.5a12.62,12.62,0,0,1-12.62-12.63V350.25C219.88,202,340.09,81.76,488.37,81.76S756.88,202,756.88,350.26Z"/></g></g></svg>