<svg xmlns="http://www.w3.org/2000/svg" viewBox="0 0 978.58 1034.64"><defs><style>.cls-1{fill:#0a090c;}</style></defs><g id="Capa_2" data-name="Capa 2"><g id="Capa_1-2" data-name="Capa 1"><path class="cls-1" d="M963.67,366.92,513.93,8.61a39.56,39.56,0,0,0-49.28,0L14.9,366.92A39.56,39.56,0,0,0,0,397.84V995.1a39.54,39.54,0,0,0,39.54,39.54H312.42A39.54,39.54,0,0,0,352,995.1V715a39.54,39.54,0,0,1,39.54-39.54H587.08A39.54,39.54,0,0,1,626.62,715V995.1a39.54,39.54,0,0,0,39.54,39.54H939a39.54,39.54,0,0,0,39.54-39.54V397.84A39.54,39.54,0,0,0,963.67,366.92Z"/></g></g></svg>