<svg xmlns="http://www.w3.org/2000/svg" viewBox="0 0 615.15 1034.64"><defs><style>.cls-1{fill:#0a090c;}</style></defs><g id="Capa_2" data-name="Capa 2"><g id="Capa_1-2" data-name="Capa 1"><path class="cls-1" d="M510.57,0h-406A104.58,104.58,0,0,0,0,104.58V930.07a104.57,104.57,0,0,0,104.57,104.57h406A104.58,104.58,0,0,0,615.15,930.07V104.58A104.58,104.58,0,0,0,510.57,0Zm-203,973.07A39.42,39.42,0,1,1,347,933.66,39.41,39.41,0,0,1,307.57,973.07ZM554.84,782.19a71.14,71.14,0,0,1-71.14,71.14H131.45a71.14,71.14,0,0,1-71.14-71.14V130.29a71.15,71.15,0,0,1,71.14-71.15H483.7a71.15,71.15,0,0,1,71.14,71.15Z"/></g></g></svg>