<svg xmlns="http://www.w3.org/2000/svg" viewBox="0 0 1055.01 1055.01"><defs><style>.cls-1{fill:#00b4d8;}</style></defs><g id="Capa_2" data-name="Capa 2"><g id="Capa_1-2" data-name="Capa 1"><path class="cls-1" d="M527.5,0C236.17,0,0,236.17,0,527.5S236.17,1055,527.5,1055,1055,818.83,1055,527.5,818.83,0,527.5,0ZM787.24,258.42c-7.91,40.16-35.08,74-72.24,93a2.35,2.35,0,0,0,1.09,4.44h10.1c9.2,0,15.92,7.85,14.26,16.29-5.16,26.23-22.58,48.44-46.51,61.31a2.35,2.35,0,0,0,1.1,4.43h6.73c6.42,0,11.12,5.48,10,11.37-5.73,29.09-33.05,51.13-65.9,51.13h-.1a9.82,9.82,0,0,0-9.94,9.76V712.05l0,0A171.12,171.12,0,0,1,366.45,853.46c-12.92-9.08-14-27.93-2.82-39.1L511.84,666.15a26.14,26.14,0,0,0-7.17-42.08,489.36,489.36,0,0,0-69.27-26.79,199.32,199.32,0,0,1-141.85-190.8v-1.59A170.78,170.78,0,0,1,464.33,234.11H766C779.68,234.11,789.72,245.82,787.24,258.42Z"/></g></g></svg>