<svg xmlns="http://www.w3.org/2000/svg" viewBox="0 0 2122 719.04"><defs><style>.cls-1{fill:#00b4d8;}</style></defs><g id="Capa_2" data-name="Capa 2"><g id="Capa_1-2" data-name="Capa 1"><rect class="cls-1" x="1169.25" y="84.73" width="117.12" height="403.92" rx="8.57"/><path class="cls-1" d="M1051.82,84.73h-100a8.57,8.57,0,0,0-8.57,8.57V259.67q0,54-25.53,81.46t-67.57,27.4q-81.84,0-81.83-98.36V93.3a8.58,8.58,0,0,0-8.58-8.57h-100a8.57,8.57,0,0,0-8.57,8.57V287.45q0,90.84,46.54,136.26t126.13,45.42a180.11,180.11,0,0,0,66.07-12,155.81,155.81,0,0,0,36.95-20.36A10.22,10.22,0,0,1,943.24,445c0,37-9,55.68-27,73.69s-46.54,27-85.59,27a238.29,238.29,0,0,1-74.33-12q-31.53-10.31-54.79-27.21a8.51,8.51,0,0,0-12.36,2.93l-38.06,68.75a8.59,8.59,0,0,0,2.35,11.09Q686.31,613,732.67,626q50.69,14.26,107.74,14.27,107.36,0,163.68-54.06t56.31-165.16V93.3A8.58,8.58,0,0,0,1051.82,84.73Z"/><path class="cls-1" d="M1637.21,78.86q-41.18,1.31-73.43,14.88-29.15,12.29-48.51,34.07a4.66,4.66,0,0,1-8.17-3.09V93.3a8.58,8.58,0,0,0-8.58-8.57h-94.71a8.58,8.58,0,0,0-8.58,8.57V480.08a8.58,8.58,0,0,0,8.58,8.57h100a8.57,8.57,0,0,0,8.57-8.57V298q0-56.31,28.54-84.46t78.82-28.16c3.35,0,9,.28,17.07.83a8.59,8.59,0,0,0,9.21-8.54V87.48A8.61,8.61,0,0,0,1637.21,78.86Z"/><path class="cls-1" d="M2113.43,84.73h-100a8.57,8.57,0,0,0-8.57,8.57v22.63a4.67,4.67,0,0,1-7.89,3.42q-42.43-40.62-113-40.62-57.06,0-103.24,25.52t-72.45,72.83q-26.29,47.29-26.27,109.61t26.27,109.61q26.28,47.31,72.45,72.83T1884,494.65q75.29,0,118.14-43.68a4.67,4.67,0,0,1,8,3.32v25.79a8.57,8.57,0,0,0,8.57,8.57h94.72a8.57,8.57,0,0,0,8.57-8.57V93.3A8.57,8.57,0,0,0,2113.43,84.73ZM1977.86,368.15q-29.29,30.42-73.59,30.41-45,0-74.32-30.41t-29.29-81.46q0-51,29.29-81.46t74.32-30.4q44.3,0,73.59,30.4t29.27,81.46Q2007.13,337.75,1977.86,368.15Z"/><path class="cls-1" d="M522.32,0H188.83C84.54,0,0,84.54,0,188.83v1.75a220.4,220.4,0,0,0,156.83,211,541.4,541.4,0,0,1,76.6,29.61,28.91,28.91,0,0,1,7.93,46.53L77.48,641.56c-12.35,12.36-11.17,33.2,3.13,43.24A189.2,189.2,0,0,0,378.37,528.41l0,0V305.16a10.85,10.85,0,0,1,11-10.79h.11c36.32,0,66.53-24.37,72.86-56.53,1.29-6.52-3.9-12.57-11-12.57h-7.43a2.6,2.6,0,0,1-1.22-4.9c26.45-14.23,45.71-38.79,51.42-67.79,1.84-9.33-5.59-18-15.77-18H467.19a2.6,2.6,0,0,1-1.21-4.91c41.09-21,71.13-58.38,79.87-102.79C548.6,12.94,537.5,0,522.32,0Z"/></g></g></svg>