<svg xmlns="http://www.w3.org/2000/svg" viewBox="0 0 788.11 1037.36"><defs><style>.cls-1{fill:#fdfffc;}</style></defs><g id="Capa_2" data-name="Capa 2"><g id="Capa_1-2" data-name="Capa 1"><path class="cls-1" d="M753.55,0H272.42C122,0,0,122,0,272.42V275A317.94,317.94,0,0,0,226.26,579.31,782.16,782.16,0,0,1,336.77,622c26,12.37,31.77,46.79,11.44,67.12L111.78,925.59C94,943.41,95.67,973.48,116.29,988c106.49,74.83,254.47,64.64,349.67-30.55a272.15,272.15,0,0,0,79.92-195.07l0,0V440.25a15.66,15.66,0,0,1,15.85-15.56h.16c52.39,0,96-35.16,105.12-81.56,1.85-9.4-5.64-18.14-15.89-18.14H640.44a3.75,3.75,0,0,1-1.76-7.06c38.17-20.53,66-56,74.2-97.8,2.65-13.47-8.08-26-22.76-26H674a3.75,3.75,0,0,1-1.74-7.08c59.27-30.23,102.61-84.23,115.23-148.29C791.47,18.68,775.46,0,753.55,0Z"/></g></g></svg>