<svg xmlns="http://www.w3.org/2000/svg" viewBox="0 0 757.56 1045.37"><defs><style>.cls-1{fill:#0a090c;}</style></defs><g id="Capa_2" data-name="Capa 2"><g id="Capa_1-2" data-name="Capa 1"><path class="cls-1" d="M725.58,122H529.33c-14.75,0-28.15-10.14-31.08-24.66a121.92,121.92,0,0,0-238.82,0C256.5,111.81,243.1,122,228.24,122H32.09A32,32,0,0,0,0,153.92v859.47a32.05,32.05,0,0,0,32.09,32H725.58a32,32,0,0,0,32-32V153.92A32,32,0,0,0,725.58,122Zm-346.8,49.76A63.17,63.17,0,1,1,442,108.55,63.17,63.17,0,0,1,378.78,171.71Z"/></g></g></svg>