<svg xmlns="http://www.w3.org/2000/svg" viewBox="0 0 1057.84 821.15"><defs><style>.cls-1{fill:#fdfffc;}</style></defs><g id="Capa_2" data-name="Capa 2"><g id="Capa_1-2" data-name="Capa 1"><path class="cls-1" d="M1056.26,305.58,920.52,10A17.07,17.07,0,0,0,905,0H152.83a17.07,17.07,0,0,0-15.51,10L1.58,305.58a17.07,17.07,0,0,0,15.52,24.2H124.81a17.08,17.08,0,0,1,17.07,17.08v443a31.28,31.28,0,0,0,31.28,31.28H389a31.27,31.27,0,0,0,31.28-31.28V568.3A31.27,31.27,0,0,1,451.57,537h154.7a31.27,31.27,0,0,1,31.28,31.28V789.87a31.27,31.27,0,0,0,31.28,31.28H884.68A31.28,31.28,0,0,0,916,789.87v-443A17.08,17.08,0,0,1,933,329.78h107.71A17.07,17.07,0,0,0,1056.26,305.58Z"/></g></g></svg>