<svg xmlns="http://www.w3.org/2000/svg" viewBox="0 0 1051.76 1058.96"><defs><style>.cls-1{fill:#00b4d8;}</style></defs><g id="Capa_2" data-name="Capa 2"><g id="Capa_1-2" data-name="Capa 1"><path class="cls-1" d="M944.69,208.14C815.26,44,644.44-24.09,438.06,7.54,291.3,30,175.55,107.36,91.35,229.61,19.4,334.06-9,450.8,2.45,576.77c6.82,75.21,30,145.72,67.73,211.34A19.67,19.67,0,0,1,72,800.61c-15.84,65-32,129.86-48.15,194.77-4.65,18.73-9.26,37.47-14.18,57.44a5,5,0,0,0,6,6c.76-.2,1.49-.39,2.21-.6Q140.3,1023,262.64,987.61c5.79-1.68,10.37-1.32,15.81,1.6,68.62,36.82,141.94,57.55,219.67,61.29,117.63,5.65,226.54-23,323.28-90.46C964.88,860,1042.45,721.35,1051.07,546.53,1057.23,421.37,1022.36,306.63,944.69,208.14ZM639.75,950.25c-123.15,31.09-239,11-346.14-57.49-7.06-4.52-12.87-4.92-20.48-2.66C229.74,903,186.22,915.4,142.75,928l-.07,0a5,5,0,0,1-6.12-6c11.64-47,22.87-92.74,34.41-138.36,1.45-5.73.62-9.93-2.57-14.8C30.31,558.3,93.73,281.18,309.54,151.65,500,37.36,750,88,882.81,267.71,1066.85,516.81,939.89,874.46,639.75,950.25Z"/><path class="cls-1" d="M767.1,626.73c-24.43-13.83-49-27.6-74.2-39.84-22.84-11.08-37.55-7.36-55.08,10.85-14,14.5-27.87,29-41.58,43.76-3.54,3.79-6.57,4.5-11.5,2.37-50.1-21.71-96.34-49.36-135.56-87.78-22.84-22.37-41.51-47.7-53.6-77.59-1.92-4.74-1.84-8,1.83-11.84,8-8.34,14.85-17.78,23.28-25.58,16.77-15.52,21.32-34.24,13.93-54.92C423.5,355,411.86,324,398.43,293.76c-10.51-23.65-36.94-32.37-60-20.73-45.57,23-95.7,74.45-72.45,150.26,45.21,147.44,136.15,253,280.25,310.6,37.95,15.16,77.2,26.57,122.56,27.76,9.43-1,22.77-1.78,35.84-4.06,52.5-9.14,80-39.79,83.14-90.79C788.89,648.79,782.31,635.34,767.1,626.73Z"/></g></g></svg>