<svg xmlns="http://www.w3.org/2000/svg" viewBox="0 0 2097.76 800.32"><defs><style>.cls-1{fill:#0a090c;}</style></defs><g id="Capa_2" data-name="Capa 2"><g id="Capa_1-2" data-name="Capa 1"><rect class="cls-1" x="739.98" y="8.55" width="166.91" height="575.64" rx="12.22"/><path class="cls-1" d="M572.63,8.55H430.13a12.22,12.22,0,0,0-12.21,12.22V257.86q0,77-36.38,116.09T285.25,413q-116.64,0-116.63-140.17V20.77A12.22,12.22,0,0,0,156.41,8.55H13.93A12.22,12.22,0,0,0,1.71,20.77V297.45q0,129.45,66.34,194.2T247.8,556.37q50.28,0,94.15-17.12a222.43,222.43,0,0,0,52.66-29A14.56,14.56,0,0,1,417.88,522c0,52.8-12.8,79.35-38.47,105s-66.34,38.52-122,38.52A339.36,339.36,0,0,1,151.5,648.39q-44.94-14.68-78.08-38.78a12.13,12.13,0,0,0-17.62,4.18l-54.24,98a12.21,12.21,0,0,0,3.36,15.8Q51.72,761.4,117.8,780,190,800.32,271.34,800.32q153,0,233.26-77T584.84,487.9V20.77A12.22,12.22,0,0,0,572.63,8.55Z"/><path class="cls-1" d="M1406.88.19q-58.68,1.86-104.65,21.2Q1260.7,38.9,1233.1,69.94a6.65,6.65,0,0,1-11.66-4.4V20.77a12.22,12.22,0,0,0-12.21-12.22h-135A12.22,12.22,0,0,0,1062,20.77V572a12.22,12.22,0,0,0,12.21,12.22h142.48A12.22,12.22,0,0,0,1228.94,572V312.42q0-80.25,40.66-120.37t112.34-40.12q7.14,0,24.31,1.18a12.27,12.27,0,0,0,13.14-12.18V12.47A12.26,12.26,0,0,0,1406.88.19Z"/><path class="cls-1" d="M2085.54,8.55H1943.06a12.22,12.22,0,0,0-12.22,12.22V53a6.66,6.66,0,0,1-11.24,4.88Q1859.12,0,1758.59,0q-81.33,0-147.12,36.38T1508.22,140.16q-37.48,67.4-37.45,156.21t37.45,156.21q37.44,67.43,103.25,103.79t147.12,36.38q107.29,0,168.36-62.26a6.66,6.66,0,0,1,11.39,4.72V572a12.22,12.22,0,0,0,12.21,12.22h135A12.23,12.23,0,0,0,2097.76,572V20.77A12.23,12.23,0,0,0,2085.54,8.55ZM1892.33,412.46q-41.73,43.35-104.86,43.33-64.18,0-105.92-43.33t-41.74-116.09q0-72.74,41.74-116.08T1787.47,137q63.12,0,104.86,43.34t41.72,116.08Q1934.05,369.14,1892.33,412.46Z"/></g></g></svg>