<?xml version="1.0" encoding="utf-8"?>
<!-- Generator: Adobe Illustrator 25.3.1, SVG Export Plug-In . SVG Version: 6.00 Build 0)  -->
<svg version="1.1" id="Capa_1" xmlns="http://www.w3.org/2000/svg" xmlns:xlink="http://www.w3.org/1999/xlink" x="0px" y="0px"
	 viewBox="0 0 1080 424.55" style="enable-background:new 0 0 1080 424.55;" xml:space="preserve">
<style type="text/css">
	.st0{fill:#FFFFFF;}
</style>
<g>
	<path class="st0" d="M315.8,22.33v232.51c0,51.2-12.97,89.26-38.92,114.17c-25.95,24.91-63.67,37.37-113.14,37.37
		c-26.3,0-51.12-3.29-74.47-9.86c-23.35-6.57-42.99-16.09-58.9-28.54l32.18-58.12c11.76,9.68,26.12,17.3,43.07,22.84
		c16.95,5.53,34.07,8.3,51.38,8.3c26.99,0,46.71-6.23,59.17-18.69c12.45-12.45,18.68-31.48,18.68-57.09v-9.34
		c-10.38,10.38-22.66,18.35-36.85,23.87c-14.19,5.54-29.41,8.3-45.67,8.3c-36.67,0-65.74-10.45-87.19-31.39
		c-21.45-20.93-32.18-52.33-32.18-94.2V22.33h80.96v128.19c0,45.33,18.85,67.99,56.57,67.99c19.37,0,34.94-6.31,46.71-18.94
		c11.76-12.63,17.64-31.4,17.64-56.31V22.33H315.8z"/>
	<path class="st0" d="M391.05,22.33h80.96v279.21h-80.96V22.33z"/>
	<path class="st0" d="M663.77,28.55c16.43-6.91,35.38-10.38,56.83-10.38v74.73c-9-0.7-15.05-1.04-18.17-1.04
		c-23.18,0-41.35,6.49-54.49,19.46c-13.16,12.97-19.72,32.44-19.72,58.39v131.82h-80.96V22.33h77.33v36.85
		C634.27,45.68,647.33,35.48,663.77,28.55z"/>
	<path class="st0" d="M1049.64,22.33v279.21h-77.33v-32.18c-20.07,24.22-49.13,36.32-87.19,36.32c-26.3,0-50.08-5.88-71.36-17.64
		c-21.28-11.76-37.97-28.54-50.08-50.34c-12.12-21.79-18.17-47.05-18.17-75.77c0-28.71,6.05-53.98,18.17-75.77
		c12.11-21.8,28.8-38.58,50.08-50.34c21.28-11.76,45.06-17.64,71.36-17.64c35.63,0,63.48,11.24,83.55,33.73V22.33H1049.64z
		 M950,218.24c13.49-14.01,20.24-32.78,20.24-56.31c0-23.52-6.75-42.3-20.24-56.31c-13.5-14.02-30.45-21.02-50.86-21.02
		c-20.76,0-37.89,7-51.38,21.02c-13.5,14.01-20.24,32.78-20.24,56.31c0,23.53,6.75,42.3,20.24,56.31
		c13.49,14.02,30.62,21.02,51.38,21.02C919.54,239.26,936.5,232.26,950,218.24z"/>
</g>
</svg>
