<svg xmlns="http://www.w3.org/2000/svg" xmlns:xlink="http://www.w3.org/1999/xlink" viewBox="0 0 1054.64 1054.64"><defs><style>.cls-1{fill:url(#Nueva_muestra_de_degradado_1);}</style><linearGradient id="Nueva_muestra_de_degradado_1" y1="527.32" x2="1054.64" y2="527.32" gradientUnits="userSpaceOnUse"><stop offset="0" stop-color="#f72585"/><stop offset="1" stop-color="#4895ef"/></linearGradient></defs><g id="Capa_2" data-name="Capa 2"><g id="Capa_1-2" data-name="Capa 1"><path class="cls-1" d="M527.32,0C236.09,0,0,236.09,0,527.32s236.09,527.32,527.32,527.32,527.32-236.09,527.32-527.32S818.55,0,527.32,0ZM787,258.33c-7.9,40.14-35.06,74-72.21,92.93a2.35,2.35,0,0,0,1.09,4.44h10.09c9.2,0,15.93,7.84,14.26,16.28C735,398.2,717.62,420.4,693.7,433.27a2.35,2.35,0,0,0,1.1,4.43h6.73c6.42,0,11.11,5.47,10,11.36-5.73,29.08-33,51.11-65.87,51.11h-.11a9.82,9.82,0,0,0-9.93,9.76V711.8l0,0A171.06,171.06,0,0,1,366.33,853.17c-12.93-9.08-14-27.92-2.83-39.09L511.66,665.91a26.13,26.13,0,0,0-7.16-42.06,490.4,490.4,0,0,0-69.26-26.78A199.24,199.24,0,0,1,293.45,406.34v-1.59A170.72,170.72,0,0,1,464.17,234H765.69C779.41,234,789.45,245.73,787,258.33Z"/></g></g></svg>